<?xml version="1.0" encoding="UTF-8"?>
<svg version="1.1" viewBox="0 0 900 900" width="1280" height="1280" xmlns="http://www.w3.org/2000/svg">
<path transform="translate(0)" d="m0 0h900v900h-900z" fill="#fff"/>
<path transform="translate(239,138)" d="m0 0 23 1 26 5 21 6 19 8 21 11 17 12 10 8 12 11 13 14 11 15 9 14 8 16 8 19 6 21 4 22 1 7v37l-4 24-6 21-8 20-7 14-12 19-11 13-9 11-10 10-11 9-10 8-17 11-15 8-23 9-22 6-20 3-23 1-26-2-16-2-19-6-21-8-21-11-12-8-13-10-10-9-8-7-9-10-13-17-12-19-10-21-7-20-4-16-3-17-1-11v-27l4-27 6-23 8-20 10-19 7-11 10-14 12-13 17-17 16-12 16-10 15-8 20-8 21-6 23-4z" fill="#fff"/>
<path transform="translate(477,249)" d="m0 0h238l6 4 11 10 11 9 14 13 11 9 13 12 8 7 13 11 12 11 11 9 12 11 8 7 10 9 8 7 1 1 1 39v243l-3 5-6 3h-47l-6-2-4-5-1-9 3-5 5-4 14-1h19v-183h-213l-5-3-5-6-1-173-7-1-22-1-42-1-82-1-6-7-1-2v-7l5-7 2-1z" fill="#020202"/>
<path transform="translate(239,138)" d="m0 0 23 1 26 5 21 6 19 8 21 11 17 12 10 8 12 11 13 14 11 15 9 14 8 16 8 19 6 21 4 22 1 7v37l-4 24-6 21-8 20-7 14-12 19-11 13-9 11-10 10-11 9-10 8-17 11-15 8-23 9-22 6-20 3-23 1-26-2-16-2-19-6-21-8-21-11-12-8-13-10-10-9-8-7-9-10-13-17-12-19-10-21-7-20-4-16-3-17-1-11v-27l4-27 6-23 8-20 10-19 7-11 10-14 12-13 17-17 16-12 16-10 15-8 20-8 21-6 23-4zm-15 27-28 5-20 6-18 8-16 9-14 10-13 12-11 11-10 13-12 19-9 19-8 26-4 26v35l5 27 8 24 10 21 9 14 10 13 14 15 14 12 17 11 17 9 21 8 21 5 20 3h28l25-4 26-7 21-9 20-12 12-10 8-7 10-10 11-14 9-14 11-21 7-19 4-17 3-28v-23l-3-23-7-24-7-18-9-17-10-14-9-11-18-18-19-14-22-12-18-7-15-4-17-3-9-1z" fill="#020202"/>
<path transform="translate(660,275)" d="m0 0h44l14 11 11 10 11 9 10 9 11 9 11 10 11 9 14 13 11 9 11 10 8 7 11 9 1 4v38l-6 2-192-1-1-5v-25l1-126 1-1z" fill="#fff"/>
<path transform="translate(724,620)" d="m0 0h8l15 3 12 5 10 6 10 9 8 10 8 16 3 12v21l-3 12-7 14-9 11-10 9-14 8-11 4-5 1h-20l-11-3-12-5-11-8-12-12-9-14-5-16-1-16 2-13 5-12 6-10 8-10 9-8 14-8 15-5z" fill="#020202"/>
<path transform="translate(238,621)" d="m0 0h17l11 2 16 7 11 8 8 8 9 14 5 12 2 9v19l-3 13-8 16-11 13-12 9-14 7-12 3h-18l-13-3-16-8-13-11-8-10-8-16-3-11v-22l4-13 7-14 8-10 7-7 14-9 14-5z" fill="#020202"/>
<path transform="translate(327,643)" d="m0 0h38l287 1 5 6 2 5-1 7-6 7-3 1h-322l-4-2-4-6-1-8 3-6 3-4z" fill="#020202"/>
<path transform="translate(355,260)" d="m0 0h6l6 4 3 7-1 6-9 10-15 16-97 97-8 7-17 17-9 5-5 1-10-1-9-6-13-12-11-11-2-1v-2l-4-2-21-21-7-8-13-14-4-6-1-8 3-6 10-3 5 1 10 9 8 7 45 45 8 7 3 4 5-1 6-7h2l2-4 8-7 4-5 7-6 7-8 6-6h2v-2h2l2-4 46-46 8-7 31-31z" fill="#020202"/>
<path transform="translate(722,647)" d="m0 0h14l12 3 10 6 7 8 6 12 2 12v8l-3 14-6 10-7 7-12 6-7 2h-20l-12-4-10-9-6-7-5-13-1-14 2-12 6-12 6-7 11-7 6-2z" fill="#fff"/>
<path transform="translate(244,646)" d="m0 0 17 2 10 4 8 6 6 7 5 11 2 11v9l-1 9-6 12-7 8-11 7-10 3h-19l-12-4-8-6-8-9-4-8-2-10v-13l2-10 4-9 7-8 8-6 10-4z" fill="#fff"/>
<path transform="translate(122,543)" d="m0 0h9l5 4 1 2 1 35v58l31 1 5 3 3 5v10l-6 7-5 1h-38l-8-1-7-5-1-2v-110l5-5z" fill="#020202"/>
</svg>
